<?xml version="1.0" encoding="utf-8"?>
<!-- Generator: Adobe Illustrator 19.2.0, SVG Export Plug-In . SVG Version: 6.00 Build 0)  -->
<svg version="1.1" id="Layer_1" xmlns="http://www.w3.org/2000/svg" xmlns:xlink="http://www.w3.org/1999/xlink" x="0px" y="0px"
	 viewBox="0 0 155 33.3" style="enable-background:new 0 0 155 33.3;" xml:space="preserve">
<style type="text/css">
	.st0{fill:#FFFFFF;}
</style>
<title>LOGO_HRYZLYUK_menu</title>
<path class="st0" d="M2.2,0H0v10.5h2.1V6.4h13.4v4.1h2.1V0h-2.1v4.1H2.2V0z M21.5,2.3h12.6c0.2,0,0.4,0.1,0.6,0.2
	c0.2,0.2,0.2,0.4,0.2,0.7v0.2c0,0.2-0.1,0.4-0.2,0.6c-0.2,0.1-0.3,0.1-0.5,0.1H21.5V2.3z M35.1,0H19.4v10.5h2.1V6.4h11.7l1.7,4.1
	h2.2l-1.5-4.2c0.4-0.1,0.8-0.4,1.1-0.7c0.3-0.4,0.5-1,0.4-1.5V2.3c0-0.3-0.1-0.6-0.2-0.9c-0.1-0.3-0.3-0.5-0.4-0.7
	c-0.2-0.2-0.4-0.3-0.7-0.5C35.6,0.1,35.3,0,35.1,0L35.1,0z M38.8,8.2v2.3h15.7c0.5,0,1-0.2,1.4-0.6c0.4-0.5,0.6-1.1,0.6-1.7V0h-2.1
	v4.1H41.6c-0.2,0-0.4-0.1-0.5-0.3c-0.1-0.2-0.2-0.5-0.2-0.7V0h-2.1v4.1c0,0.3,0,0.7,0.2,1c0.1,0.3,0.3,0.5,0.4,0.7
	c0.2,0.2,0.4,0.3,0.6,0.4c0.2,0.1,0.5,0.2,0.8,0.2h13.5v1c0,0.2-0.1,0.5-0.2,0.6c-0.1,0.1-0.3,0.2-0.5,0.2L38.8,8.2L38.8,8.2z
	 M81.8,8.2h14.8v2.3H80.9c-0.3,0-0.5-0.1-0.8-0.2c-0.2-0.1-0.5-0.3-0.6-0.4c-0.2-0.2-0.3-0.4-0.4-0.7c-0.1-0.3-0.2-0.7-0.2-1V0h2.1
	v7.2c0,0.3,0.1,0.5,0.2,0.7C81.4,8.1,81.6,8.2,81.8,8.2L81.8,8.2z M98.3,8.2v2.3H114c0.5,0,1-0.2,1.4-0.6c0.4-0.5,0.6-1.1,0.6-1.7V0
	h-2.1v4.1h-12.7c-0.2,0-0.4-0.1-0.5-0.3c-0.1-0.2-0.2-0.5-0.2-0.7V0h-2.1v4.1c0,0.3,0,0.7,0.2,1c0.1,0.3,0.3,0.5,0.4,0.7
	c0.2,0.2,0.4,0.3,0.6,0.4c0.2,0.1,0.5,0.2,0.8,0.2h13.5v1c0,0.2-0.1,0.5-0.2,0.6c-0.1,0.1-0.3,0.2-0.5,0.2H98.3L98.3,8.2z
	 M120.5,8.2c-0.2,0-0.4-0.1-0.5-0.3c-0.1-0.2-0.2-0.5-0.2-0.7V0h-2.1v8.2c0,0.3,0,0.7,0.2,1c0.1,0.3,0.3,0.5,0.4,0.7
	c0.2,0.2,0.4,0.3,0.6,0.4c0.2,0.1,0.5,0.2,0.8,0.2h15.6V0h-2.1v8.2H120.5L120.5,8.2z M139.2,10.5V6.4h11.8l1.6,4.1h2.2l-1.9-5.2
	l1.9-5.2h-2.2L151,4.1h-11.8V0H137v10.5H139.2z M77.1,8.2v2.3H58V8.2l13.9-5.9H58V0h19.2v2.4L63.7,8.2H77.1L77.1,8.2z M154.9,23.4
	h-0.9l-2.8-4.4c-0.1-0.1-0.1-0.2-0.2-0.4h0c0,0.3,0,0.5,0,0.8v3.9h-0.7v-5.6h0.9l2.7,4.3c0.1,0.1,0.2,0.3,0.2,0.4l0,0
	c0-0.3,0-0.5,0-0.8v-3.8h0.7L154.9,23.4L154.9,23.4z M144.9,23c-0.6,0.3-1.2,0.5-1.9,0.5c-0.7,0-1.4-0.2-2-0.8
	c-0.5-0.6-0.8-1.3-0.7-2.1c0-0.8,0.3-1.6,0.8-2.1c0.6-0.6,1.3-0.9,2.1-0.8c0.5,0,1.1,0.1,1.5,0.3v0.8c-0.5-0.3-1-0.4-1.6-0.4
	c-0.6,0-1.1,0.2-1.5,0.6c-0.4,0.5-0.6,1-0.6,1.6c0,0.6,0.2,1.2,0.5,1.6c0.4,0.4,0.9,0.6,1.5,0.6c0.4,0,0.8-0.1,1.1-0.2v-1.5H143
	v-0.6h1.9L144.9,23L144.9,23z M135,17.8v5.6h-0.7v-5.6C134.3,17.8,135,17.8,135,17.8z M125.6,22.3c0.2,0.2,0.4,0.3,0.7,0.4
	c0.3,0.1,0.5,0.1,0.8,0.1c0.8,0,1.2-0.3,1.2-0.8c0-0.2,0-0.3-0.1-0.4c-0.1-0.1-0.2-0.2-0.3-0.3c-0.3-0.2-0.5-0.3-0.8-0.4
	c-0.4-0.2-0.8-0.4-1.1-0.8c-0.2-0.2-0.3-0.5-0.3-0.8c0-0.4,0.2-0.9,0.6-1.1c0.4-0.3,0.9-0.4,1.4-0.4c0.4,0,0.8,0,1.2,0.2v0.8
	c-0.4-0.2-0.8-0.4-1.3-0.3c-0.3,0-0.6,0.1-0.8,0.2c-0.2,0.1-0.3,0.4-0.3,0.6c0,0.2,0.1,0.4,0.2,0.6c0.3,0.2,0.6,0.4,1,0.6
	c0.4,0.2,0.8,0.4,1.2,0.8c0.2,0.2,0.3,0.6,0.3,0.9c0,0.4-0.2,0.9-0.5,1.1c-0.4,0.3-1,0.4-1.5,0.4c-0.3,0-0.5,0-0.8-0.1
	c-0.2,0-0.5-0.1-0.7-0.2L125.6,22.3L125.6,22.3z M120.6,23.4h-3v-5.6h2.9v0.7h-2.2v1.8h2v0.6h-2v1.9h2.3V23.4L120.6,23.4z
	 M108.5,18.4v4.3h0.8c0.6,0,1.2-0.2,1.6-0.6c0.4-0.4,0.6-1,0.6-1.6c0-0.6-0.2-1.2-0.6-1.6c-0.5-0.4-1-0.6-1.6-0.5L108.5,18.4
	L108.5,18.4z M107.8,23.4v-5.6h1.6c0.8,0,1.5,0.2,2.1,0.7c0.6,0.5,0.9,1.2,0.8,2c0,0.8-0.3,1.5-0.8,2.1c-0.6,0.5-1.4,0.8-2.2,0.8
	L107.8,23.4L107.8,23.4z M100.3,23.4h-3v-5.6h2.9v0.7h-2.2v1.8h2v0.6h-2v1.9h2.3L100.3,23.4L100.3,23.4z M89,18.4v2h0.9
	c0.3,0,0.6-0.1,0.8-0.3c0.2-0.2,0.3-0.5,0.3-0.8c0-0.3-0.1-0.5-0.3-0.7c-0.2-0.2-0.5-0.3-0.8-0.2L89,18.4L89,18.4z M92.4,23.4h-0.9
	l-0.9-1.6c-0.1-0.2-0.3-0.5-0.5-0.6C90,21.1,89.8,21,89.6,21H89v2.4h-0.7v-5.6H90c0.5,0,0.9,0.1,1.3,0.4c0.3,0.3,0.5,0.7,0.5,1.1
	c0,0.8-0.4,1.3-1.2,1.5v0c0.2,0.1,0.3,0.2,0.4,0.3c0.2,0.2,0.3,0.4,0.4,0.6L92.4,23.4z M82.8,21.1c0,1.6-0.7,2.4-2.2,2.4
	c-1.4,0-2.1-0.8-2.1-2.3v-3.4h0.7v3.4c0,1.1,0.5,1.7,1.4,1.7c0.9,0,1.4-0.5,1.4-1.6v-3.4h0.7L82.8,21.1L82.8,21.1z M73.6,18.4h-1.6
	v4.9h-0.7v-4.9h-1.6v-0.6h4L73.6,18.4L73.6,18.4z M64.9,23.2c-0.5,0.2-1,0.3-1.5,0.3c-0.7,0-1.4-0.2-1.9-0.8c-0.5-0.6-0.8-1.3-0.7-2
	c0-0.8,0.3-1.6,0.8-2.2c0.5-0.6,1.3-0.8,2.1-0.8c0.5,0,0.9,0.1,1.3,0.2v0.8c-0.4-0.2-0.9-0.3-1.3-0.3c-0.6,0-1.1,0.2-1.5,0.6
	c-0.4,0.5-0.6,1.1-0.6,1.7c0,0.6,0.2,1.2,0.6,1.6c0.4,0.4,0.9,0.6,1.4,0.6c0.5,0,1-0.1,1.4-0.4L64.9,23.2L64.9,23.2z M55.8,23.4h-3
	v-5.6h2.9v0.7h-2.2v1.8h2v0.6h-2v1.9h2.3V23.4L55.8,23.4z M47.7,18.4h-1.6v4.9h-0.7v-4.9h-1.6v-0.6h4L47.7,18.4L47.7,18.4z
	 M38.7,17.8v5.6H38v-5.6C38,17.8,38.7,17.8,38.7,17.8z M32.4,23.4h-0.7v-2.5h-2.8v2.5h-0.7v-5.6h0.7v2.4h2.8v-2.4h0.7L32.4,23.4
	L32.4,23.4z M22.8,23.2c-0.5,0.2-1,0.3-1.5,0.3c-0.7,0-1.4-0.2-1.9-0.8c-0.5-0.6-0.8-1.3-0.7-2c0-0.8,0.3-1.6,0.8-2.2
	c0.5-0.6,1.3-0.9,2-0.8c0.5,0,0.9,0.1,1.3,0.2v0.8c-0.4-0.2-0.9-0.3-1.3-0.3c-0.6,0-1.1,0.2-1.5,0.6c-0.4,0.5-0.6,1.1-0.6,1.7
	c0,0.6,0.2,1.2,0.6,1.6c0.4,0.4,0.9,0.6,1.4,0.6c0.5,0,1-0.1,1.4-0.4L22.8,23.2L22.8,23.2z M10.8,18.4v2h0.9c0.3,0,0.6-0.1,0.8-0.3
	c0.2-0.2,0.3-0.5,0.3-0.8c0-0.3-0.1-0.5-0.3-0.7c-0.2-0.2-0.5-0.3-0.8-0.2L10.8,18.4L10.8,18.4z M14.1,23.4h-0.9l-0.9-1.6
	c-0.1-0.2-0.3-0.5-0.5-0.6c-0.2-0.1-0.4-0.2-0.6-0.2h-0.5v2.4H10v-5.6h1.7c0.5,0,0.9,0.1,1.3,0.4c0.3,0.3,0.5,0.7,0.5,1.1
	c0,0.8-0.4,1.3-1.2,1.5v0c0.2,0.1,0.3,0.2,0.4,0.3c0.2,0.2,0.3,0.4,0.4,0.6L14.1,23.4z M3.4,21.2l-0.8-2.3c0-0.1-0.1-0.3-0.1-0.4h0
	c0,0.1,0,0.3-0.1,0.4l-0.8,2.3H3.4L3.4,21.2z M5,23.4H4.2l-0.6-1.5H1.3l-0.5,1.5H0l2.1-5.6h0.8L5,23.4z M150.4,30.4
	c0,0.6,0.2,1.2,0.5,1.6c0.3,0.4,0.8,0.6,1.4,0.6c0.5,0,1.1-0.2,1.4-0.6c0.4-0.5,0.5-1.1,0.5-1.6c0-0.6-0.1-1.2-0.5-1.7
	c-0.3-0.4-0.9-0.6-1.4-0.6c-0.5,0-1,0.2-1.4,0.6C150.6,29.2,150.4,29.8,150.4,30.4 M149.7,30.4c0-0.8,0.2-1.6,0.7-2.2
	c0.5-0.5,1.2-0.8,2-0.8c0.7,0,1.4,0.3,1.9,0.8c0.5,0.6,0.8,1.3,0.7,2c0,0.8-0.2,1.6-0.7,2.2c-0.5,0.5-1.2,0.8-2,0.8
	c-0.7,0-1.4-0.3-1.9-0.8C149.9,31.9,149.7,31.2,149.7,30.4L149.7,30.4z M144.7,27.6v5.6H144v-5.6H144.7z M135.1,28.2v4.3h0.8
	c0.6,0,1.2-0.2,1.6-0.6c0.4-0.4,0.6-1,0.6-1.6c0-0.6-0.2-1.2-0.6-1.6c-0.5-0.4-1-0.6-1.6-0.5H135.1L135.1,28.2z M134.4,33.2v-5.6
	h1.6c0.8,0,1.5,0.2,2.1,0.7c0.6,0.5,0.9,1.2,0.8,2c0,0.8-0.3,1.5-0.8,2.1c-0.6,0.5-1.4,0.8-2.2,0.8L134.4,33.2L134.4,33.2z
	 M129.1,30.9c0,1.6-0.7,2.4-2.2,2.4c-1.4,0-2.1-0.8-2.1-2.3v-3.4h0.7v3.4c0,1.1,0.5,1.7,1.4,1.7c0.9,0,1.4-0.5,1.3-1.6v-3.4h0.7
	L129.1,30.9L129.1,30.9z M120.2,28.2h-1.6v4.9h-0.7v-4.9h-1.6v-0.6h4L120.2,28.2L120.2,28.2z M108.4,32.1c0.2,0.2,0.4,0.3,0.7,0.4
	c0.3,0.1,0.5,0.1,0.8,0.1c0.8,0,1.2-0.3,1.2-0.8c0-0.2,0-0.3-0.1-0.4c-0.1-0.1-0.2-0.2-0.3-0.3c-0.3-0.2-0.5-0.3-0.8-0.4
	c-0.4-0.2-0.8-0.4-1.1-0.8c-0.2-0.2-0.3-0.5-0.3-0.8c0-0.4,0.2-0.9,0.6-1.1c0.4-0.3,0.9-0.4,1.4-0.4c0.4,0,0.8,0,1.2,0.2v0.8
	c-0.4-0.2-0.8-0.4-1.3-0.3c-0.3,0-0.6,0.1-0.8,0.2c-0.2,0.1-0.3,0.4-0.3,0.6c0,0.2,0.1,0.4,0.2,0.6c0.3,0.2,0.6,0.4,1,0.6
	c0.4,0.2,0.8,0.4,1.2,0.8c0.2,0.2,0.3,0.6,0.3,0.9c0,0.4-0.2,0.9-0.5,1.1c-0.4,0.3-1,0.4-1.5,0.4c-0.3,0-0.5,0-0.8-0.1
	c-0.2,0-0.5-0.1-0.7-0.2L108.4,32.1L108.4,32.1z M101.1,33.2h-0.9l-2.8-4.4c-0.1-0.1-0.1-0.2-0.2-0.4h0c0,0.3,0,0.5,0,0.8v3.9h-0.7
	v-5.6h0.9l2.7,4.3c0.1,0.1,0.2,0.3,0.2,0.4l0,0c0-0.3,0-0.5,0-0.8v-3.8h0.7L101.1,33.2L101.1,33.2z M87,30.4c0,0.6,0.2,1.2,0.5,1.6
	c0.3,0.4,0.8,0.6,1.4,0.6c0.5,0,1.1-0.2,1.4-0.6c0.4-0.5,0.5-1.1,0.5-1.6c0-0.6-0.1-1.2-0.5-1.7c-0.3-0.4-0.8-0.6-1.4-0.6
	c-0.5,0-1,0.2-1.4,0.6C87.1,29.2,87,29.8,87,30.4L87,30.4z M86.2,30.4c0-0.8,0.2-1.6,0.7-2.2c0.5-0.5,1.2-0.8,2-0.8
	c0.7,0,1.4,0.3,1.9,0.8c0.5,0.6,0.7,1.3,0.7,2c0,0.8-0.2,1.6-0.7,2.2c-0.5,0.5-1.2,0.8-2,0.8c-0.7,0-1.4-0.3-1.9-0.8
	C86.5,31.9,86.2,31.2,86.2,30.4L86.2,30.4z M81.2,27.6v5.6h-0.7v-5.6H81.2z M75.7,28.2h-1.6v4.9h-0.7v-4.9h-1.6v-0.6h4L75.7,28.2
	L75.7,28.2z M67.3,32.9c-0.5,0.2-1,0.3-1.5,0.3c-0.7,0-1.4-0.2-1.9-0.8c-0.5-0.6-0.8-1.3-0.7-2c0-0.8,0.3-1.6,0.8-2.2
	c0.5-0.6,1.3-0.8,2.1-0.8c0.5,0,0.9,0.1,1.3,0.2v0.8c-0.4-0.2-0.9-0.3-1.3-0.3c-0.6,0-1.1,0.2-1.5,0.6c-0.4,0.5-0.6,1.1-0.6,1.7
	c0,0.6,0.2,1.2,0.6,1.6c0.4,0.4,0.9,0.6,1.4,0.6c0.5,0,1-0.1,1.4-0.4L67.3,32.9L67.3,32.9z M58.2,30.9c0,1.6-0.7,2.4-2.2,2.4
	c-1.4,0-2.1-0.8-2.1-2.3v-3.4h0.7v3.4c0,1.1,0.5,1.7,1.4,1.7c0.9,0,1.4-0.5,1.4-1.6v-3.4h0.7L58.2,30.9L58.2,30.9z M46,28.2v2h0.9
	c0.3,0,0.6-0.1,0.8-0.3c0.2-0.2,0.3-0.5,0.3-0.8c0-0.3-0.1-0.5-0.3-0.7c-0.2-0.2-0.5-0.3-0.8-0.2L46,28.2L46,28.2z M49.4,33.2h-0.9
	l-0.9-1.6c-0.1-0.2-0.3-0.5-0.5-0.6c-0.2-0.1-0.4-0.2-0.6-0.2H46v2.4h-0.7v-5.6H47c0.5,0,0.9,0.1,1.3,0.4c0.3,0.3,0.5,0.7,0.5,1.1
	c0,0.8-0.4,1.3-1.2,1.5v0c0.2,0.1,0.3,0.2,0.4,0.3c0.2,0.2,0.3,0.4,0.4,0.6L49.4,33.2z M40.6,28.2h-1.6v4.9h-0.7v-4.9h-1.6v-0.6h4
	V28.2z M28.7,32.1c0.2,0.2,0.4,0.3,0.7,0.4c0.3,0.1,0.5,0.1,0.8,0.1c0.8,0,1.2-0.3,1.2-0.8c0-0.2,0-0.3-0.1-0.4
	c-0.1-0.1-0.2-0.2-0.3-0.3c-0.3-0.2-0.5-0.3-0.8-0.4c-0.4-0.2-0.8-0.4-1.1-0.8c-0.2-0.2-0.3-0.5-0.3-0.8c0-0.4,0.2-0.9,0.6-1.1
	c0.4-0.3,0.9-0.4,1.4-0.4c0.4,0,0.8,0,1.2,0.2v0.8c-0.4-0.2-0.8-0.4-1.3-0.3c-0.3,0-0.6,0.1-0.8,0.2c-0.2,0.1-0.3,0.4-0.3,0.6
	c0,0.2,0.1,0.4,0.2,0.6c0.3,0.2,0.6,0.4,1,0.6c0.4,0.2,0.8,0.4,1.2,0.8c0.2,0.2,0.3,0.6,0.3,0.9c0,0.4-0.2,0.9-0.5,1.1
	c-0.4,0.3-1,0.4-1.5,0.4c-0.3,0-0.5,0-0.8-0.1c-0.2,0-0.5-0.1-0.7-0.2L28.7,32.1L28.7,32.1z M23.6,33.2h-0.9L20,28.8
	c-0.1-0.1-0.1-0.2-0.2-0.4h0c0,0.3,0,0.5,0,0.8v3.9h-0.7v-5.6H20l2.7,4.3c0.1,0.1,0.2,0.3,0.2,0.4l0,0c0-0.3,0-0.5,0-0.8v-3.8h0.7
	L23.6,33.2L23.6,33.2z M9.5,30.4c0,0.6,0.2,1.2,0.5,1.6c0.3,0.4,0.8,0.6,1.4,0.6c0.5,0,1.1-0.2,1.4-0.6c0.4-0.5,0.5-1.1,0.5-1.6
	c0-0.6-0.1-1.2-0.5-1.7c-0.3-0.4-0.8-0.6-1.4-0.6c-0.5,0-1,0.2-1.4,0.6C9.7,29.2,9.5,29.8,9.5,30.4z M8.8,30.4
	c0-0.8,0.2-1.6,0.7-2.2c0.5-0.5,1.2-0.8,2-0.8c0.7,0,1.4,0.3,1.9,0.8c0.5,0.6,0.7,1.3,0.7,2c0,0.8-0.2,1.6-0.7,2.2
	c-0.5,0.5-1.2,0.8-2,0.8c-0.7,0-1.4-0.3-1.9-0.8C9,31.9,8.7,31.2,8.8,30.4L8.8,30.4z M4.2,32.9c-0.5,0.2-1,0.3-1.5,0.3
	c-0.7,0-1.4-0.2-1.9-0.8c-0.5-0.6-0.8-1.3-0.7-2c0-0.8,0.3-1.6,0.8-2.2c0.5-0.6,1.3-0.8,2.1-0.8c0.5,0,0.9,0.1,1.3,0.2v0.8
	c-0.4-0.2-0.9-0.3-1.3-0.3c-0.6,0-1.1,0.2-1.5,0.6c-0.4,0.5-0.6,1.1-0.6,1.7c0,0.6,0.2,1.2,0.6,1.6c0.4,0.4,0.9,0.6,1.4,0.6
	c0.5,0,1-0.1,1.4-0.4L4.2,32.9L4.2,32.9z"/>
</svg>
