<?xml version="1.0" encoding="utf-8"?>
<!-- Generator: Adobe Illustrator 19.2.0, SVG Export Plug-In . SVG Version: 6.00 Build 0)  -->
<svg version="1.1" id="Capa_1" xmlns="http://www.w3.org/2000/svg" xmlns:xlink="http://www.w3.org/1999/xlink" x="0px" y="0px"
	 viewBox="0 0 42 49.6" style="enable-background:new 0 0 42 49.6;" xml:space="preserve">
<style type="text/css">
	.st0{fill:#FFCF71;}
</style>
<title>view object icon</title>
<path class="st0" d="M42,42c0,5.3-10.9,7.6-21,7.6S0,47.3,0,42c0-4,6-5.9,11-6.8c1-0.1,2,0.6,2.2,1.6c0.1,1-0.5,1.9-1.5,2.1
	c-6,1.1-7.7,2.7-7.8,3.1c0.3,1,6,3.8,17.2,3.8S37.9,43,38.2,42c-0.1-0.3-1.8-2-8-3c-1-0.1-1.8-1.1-1.6-2.2c0.1-1,1.1-1.8,2.2-1.6
	c0,0,0.1,0,0.1,0C36,36,42,38,42,42z M13.4,30.5h1.9V42c0,1.1,0.9,1.9,1.9,1.9l0,0h7.6c1.1,0,1.9-0.9,1.9-1.9V30.5h1.9
	c1.1,0,1.9-0.9,1.9-1.9V17.2c0-1-1.5-3.1-4.2-3.4c-1.8-0.3-3.6-0.4-5.4-0.4c-1.8,0-3.6,0.1-5.4,0.4c-2.7,0.3-4.2,2.5-4.2,3.4v11.5
	C11.4,29.7,12.3,30.6,13.4,30.5C13.3,30.6,13.4,30.6,13.4,30.5z M21,11.4c3.2,0,5.7-2.6,5.7-5.7C26.7,2.6,24.2,0,21,0
	c-3.2,0-5.7,2.6-5.7,5.7v0C15.3,8.9,17.8,11.4,21,11.4z"/>
</svg>
